<svg width="61" height="54" viewBox="0 0 61 54" fill="none" xmlns="http://www.w3.org/2000/svg">
<path d="M43.5541 33.7654C43.5541 36.6984 42.3076 39.0081 39.8146 40.6945L45.5339 53.0128C50.1532 50.8865 53.7461 47.9902 56.3124 44.324C58.8787 40.5845 60.1619 36.3684 60.1619 31.6757C60.1619 26.8364 59.062 22.9869 56.8623 20.1273C54.7359 17.1943 51.913 15.0313 48.3935 13.6382C44.8739 12.1717 40.5479 10.9618 35.4152 10.0086C30.3559 9.05544 26.6164 8.24889 24.1967 7.58897C21.7771 6.85574 19.9073 5.9392 18.5875 4.83934C17.2677 3.66617 16.6078 2.05305 16.6078 0L0 1.20983C0 6.1225 1.06319 10.082 3.18957 13.0882C5.38927 16.0212 8.21222 18.2575 11.6584 19.7973C15.1046 21.2638 19.3574 22.4736 24.4167 23.4268C29.5493 24.4534 33.3255 25.3332 35.7452 26.0665C38.2382 26.7264 40.1446 27.6796 41.4644 28.9261C42.8575 30.0993 43.5541 31.7124 43.5541 33.7654Z" fill="#E75B13"/>
</svg>
