<svg width="766" height="177" viewBox="0 0 766 177" fill="none" xmlns="http://www.w3.org/2000/svg">
<path d="M129.82 110.137C129.82 118.879 126.104 125.763 118.674 130.79L135.721 167.506C149.489 161.168 160.198 152.536 167.848 141.608C175.497 130.462 179.322 117.895 179.322 103.908C179.322 89.4836 176.043 78.0096 169.487 69.4861C163.149 60.744 154.735 54.2967 144.244 50.1443C133.754 45.7732 120.859 42.1671 105.56 39.3259C90.4804 36.4848 79.3343 34.0807 72.1221 32.1137C64.9099 29.9282 59.3368 27.1963 55.4029 23.9181C51.4689 20.4212 49.502 15.6131 49.502 9.49365L0 13.0997C0 27.7427 3.169 39.5445 9.507 48.5051C16.0635 57.2472 24.4778 63.913 34.7497 68.5026C45.0216 72.8736 57.6976 76.4797 72.7777 79.3209C88.0763 82.3806 99.3317 85.0032 106.544 87.1888C113.975 89.1557 119.657 91.9969 123.591 95.7123C127.743 99.2091 129.82 104.017 129.82 110.137Z" fill="#E75B13"/>
<path d="M228.519 121.795C228.814 125.136 230.435 127.838 233.383 129.902C236.331 131.965 240.114 132.997 244.733 132.997C249.154 132.997 252.643 132.309 255.198 130.934C257.753 129.46 259.03 127.396 259.03 124.743C259.03 122.778 258.441 121.304 257.261 120.321C256.082 119.338 254.412 118.65 252.25 118.257C250.088 117.766 246.55 117.226 241.637 116.636C234.955 115.752 229.403 114.622 224.981 113.246C220.559 111.87 217.022 109.708 214.369 106.76C211.715 103.812 210.389 99.8818 210.389 94.9686C210.389 90.0553 211.715 85.7316 214.369 81.9975C217.12 78.1652 220.952 75.2172 225.866 73.1537C230.779 71.0901 236.429 70.0583 242.816 70.0583C253.134 70.1566 261.438 72.3676 267.727 76.6912C274.114 81.0149 277.553 87.0091 278.044 94.6738H258.293C257.998 91.8241 256.475 89.5148 253.724 87.7461C251.071 85.879 247.631 84.9455 243.406 84.9455C239.475 84.9455 236.282 85.6825 233.825 87.1565C231.467 88.6305 230.288 90.5958 230.288 93.0524C230.288 94.8212 230.926 96.1477 232.204 97.0321C233.481 97.9165 235.152 98.5552 237.215 98.9483C239.279 99.3414 242.718 99.7836 247.533 100.275C257.753 101.454 265.565 103.665 270.969 106.908C276.472 110.052 279.224 115.506 279.224 123.269C279.224 128.182 277.75 132.506 274.802 136.24C271.952 139.974 267.923 142.873 262.715 144.936C257.605 146.902 251.66 147.884 244.88 147.884C234.366 147.884 225.816 145.575 219.233 140.957C212.649 136.24 209.161 129.853 208.767 121.795H228.519ZM352.191 71.2375V147H333.767L331.85 137.861C329.197 141.006 326.102 143.462 322.564 145.231C319.027 147 314.703 147.884 309.593 147.884C300.749 147.884 293.527 145.182 287.926 139.778C282.325 134.275 279.524 125.136 279.524 112.362V71.2375H300.307V109.856C300.307 116.734 301.486 121.942 303.845 125.48C306.301 128.919 310.036 130.639 315.047 130.639C320.255 130.639 324.284 128.723 327.134 124.89C329.983 120.96 331.408 115.506 331.408 108.529V71.2375H352.191ZM400.1 70.3531C406.881 70.3531 412.875 71.9745 418.083 75.2172C423.389 78.3617 427.516 82.8819 430.464 88.7779C433.51 94.6738 435.034 101.503 435.034 109.266C435.034 117.029 433.51 123.809 430.464 129.607C427.516 135.405 423.389 139.925 418.083 143.168C412.776 146.312 406.733 147.884 399.953 147.884C390.225 147.884 382.609 144.396 377.106 137.419V176.48H356.323V71.2375H374.453L376.517 81.7028C379.071 78.2635 382.314 75.512 386.245 73.4485C390.274 71.3849 394.892 70.3531 400.1 70.3531ZM395.236 130.934C400.837 130.934 405.357 128.919 408.797 124.89C412.236 120.763 413.956 115.457 413.956 108.971C413.956 102.486 412.236 97.2778 408.797 93.3472C405.357 89.3183 400.837 87.3039 395.236 87.3039C389.635 87.3039 385.164 89.3183 381.823 93.3472C378.482 97.2778 376.811 102.486 376.811 108.971C376.811 115.555 378.482 120.861 381.823 124.89C385.164 128.919 389.635 130.934 395.236 130.934ZM510.841 129.46V147H500.228C490.697 147 486.029 142.873 486.225 134.619C483.474 138.942 480.084 142.234 476.055 144.494C472.026 146.754 467.162 147.884 461.463 147.884C453.012 147.884 446.182 145.968 440.974 142.136C435.865 138.205 433.31 132.702 433.31 125.627C433.31 117.57 436.258 111.379 442.154 107.055C448.148 102.633 456.795 100.422 468.096 100.422H483.13V96.7373C483.13 93.2981 481.853 90.5958 479.298 88.6305C476.743 86.5669 473.304 85.5351 468.98 85.5351C465.148 85.5351 462.003 86.3704 459.546 88.0409C457.09 89.7114 455.616 91.9715 455.125 94.8212H435.078C435.766 87.0582 439.206 81.064 445.396 76.8386C451.587 72.515 459.792 70.3531 470.012 70.3531C480.723 70.3531 488.977 72.7115 494.775 77.4282C500.67 82.1449 503.618 88.9744 503.618 97.9165V124.596C503.618 126.463 504.011 127.74 504.798 128.428C505.584 129.116 506.812 129.46 508.483 129.46H510.841ZM483.13 114.278H467.948C463.624 114.278 460.234 115.162 457.778 116.931C455.419 118.601 454.24 121.009 454.24 124.153C454.24 126.806 455.223 128.919 457.188 130.491C459.252 132.064 462.003 132.85 465.442 132.85C470.847 132.85 475.122 131.327 478.266 128.28C481.41 125.136 483.032 120.96 483.13 115.752V114.278ZM513.427 71.2375V64.6046C513.427 57.9226 515.343 52.8128 519.176 49.2752C523.008 45.6394 528.708 43.8215 536.274 43.8215H553.225V61.5092H540.401C538.239 61.5092 536.667 62.0006 535.684 62.9832C534.702 63.9659 534.21 65.5381 534.21 67.7V71.2375H553.225V88.7779H534.21V147H513.427V88.7779H500.898V71.2375H513.427ZM550.641 43.8215H571.424V147H550.641V43.8215ZM612.586 147.884C604.626 147.884 597.6 146.312 591.508 143.168C585.514 139.925 580.846 135.356 577.505 129.46C574.262 123.564 572.641 116.783 572.641 109.119C572.641 101.454 574.262 94.6738 577.505 88.7779C580.846 82.8819 585.514 78.3617 591.508 75.2172C597.6 71.9745 604.626 70.3531 612.586 70.3531C620.545 70.3531 627.522 71.9745 633.516 75.2172C639.609 78.3617 644.276 82.8819 647.519 88.7779C650.86 94.6738 652.531 101.454 652.531 109.119C652.531 116.882 650.86 123.711 647.519 129.607C644.276 135.405 639.609 139.925 633.516 143.168C627.522 146.312 620.545 147.884 612.586 147.884ZM612.586 130.934C618.383 130.934 622.953 128.919 626.294 124.89C629.733 120.861 631.453 115.604 631.453 109.119C631.453 102.633 629.733 97.3761 626.294 93.3472C622.953 89.3183 618.383 87.3039 612.586 87.3039C606.886 87.3039 602.317 89.3183 598.878 93.3472C595.537 97.3761 593.866 102.633 593.866 109.119C593.866 115.604 595.537 120.861 598.878 124.89C602.317 128.919 606.886 130.934 612.586 130.934ZM644.271 71.2375H666.233L681.415 124.596L695.712 71.2375H714.432L728.287 124.743L743.764 71.2375H764.989L740.079 147H717.969L704.704 101.307L691.143 147H669.033L644.271 71.2375Z" fill="#F0EFEA"/>
</svg>
