<svg width="180" height="159" viewBox="0 0 180 159" fill="none" xmlns="http://www.w3.org/2000/svg">
<path d="M129.82 100.643C129.82 109.385 126.104 116.269 118.674 121.296L135.721 158.013C149.489 151.675 160.198 143.042 167.848 132.114C175.497 120.968 179.322 108.402 179.322 94.4143C179.322 79.9899 176.043 68.5159 169.487 59.9924C163.149 51.2504 154.735 44.8031 144.244 40.6506C133.754 36.2796 120.859 32.6735 105.56 29.8323C90.4804 26.9911 79.3343 24.5871 72.1221 22.6201C64.9099 20.4346 59.3368 17.7027 55.4029 14.4244C51.4689 10.9276 49.502 6.11944 49.502 0L0 3.6061C0 18.2491 3.169 30.0508 9.507 39.0115C16.0635 47.7535 24.4778 54.4193 34.7497 59.0089C45.0216 63.38 57.6976 66.9861 72.7777 69.8272C88.0763 72.887 99.3317 75.5096 106.544 77.6951C113.975 79.6621 119.657 82.5032 123.591 86.2186C127.743 89.7154 129.82 94.5236 129.82 100.643Z" fill="#E75B13"/>
</svg>
